# xmcd
#
# Track frame offsets:
#   150
#   20531
#   37289
#   60995
#   88306
#   107164
#   133073
#   153696
#   182763
#   204404
#   224064
#
# Disc length: 3230 seconds
#
# Revision: 0
# Processed by: cddbd v1.5.2PL0 Copyright (c) Steve Scherf et al.
# Submitted via: uFREEDB 1.6.0
#
DISCID=a80c9c0b
DTITLE=Blue Stew - Headed South
DYEAR=2005
DGENRE=Blues
TTITLE0=Three Days To Louisiana
TTITLE1=That's What Lovers Will do
TTITLE2=Mean Old World
TTITLE3=The Laundromat
TTITLE4=La Fayette Cajun Fest And Fais Do Do
TTITLE5=I'm A Slave To You
TTITLE6=Trying To Kill the Pain
TTITLE7=Blues For The Bearcat
TTITLE8=Wake Up Jesus
TTITLE9=Where Do I Fit In
TTITLE10=Found True Love
EXTD=
EXTT0=
EXTT1=
EXTT2=
EXTT3=
EXTT4=
EXTT5=
EXTT6=
EXTT7=
EXTT8=
EXTT9=
EXTT10=
PLAYORDER=
